<svg width="80" height="140" viewBox="0 0 80 140" fill="none" xmlns="http://www.w3.org/2000/svg">
<rect width="80" height="140" fill="url(#paint0_linear)"/>
<g filter="url(#filter0_d)">
<path d="M31.9474 43.75L28 47.8333V36.1111H31.9474V43.75ZM38.5263 41.1944L36.4605 39.3333L34.5789 41.1667V30.5556H38.5263V41.1944ZM45.1053 38.8889L41.1579 43.0556V25H45.1053V38.8889ZM48.8026 38.625L46.4211 36.1111H53V43.0556L50.6447 40.5694L41.1579 50.5L36.5921 46.3056L31.6184 51.3889H28L36.5132 42.5833L41.1579 46.7222" fill="white"/>
</g>
<path d="M27.8887 89V79.0469H30.9512C31.8262 79.0469 32.6077 79.2451 33.2959 79.6416C33.9886 80.0335 34.5286 80.5941 34.916 81.3232C35.3034 82.0479 35.4971 82.8727 35.4971 83.7979V84.2559C35.4971 85.181 35.3057 86.0036 34.9229 86.7236C34.5446 87.4437 34.0091 88.002 33.3164 88.3984C32.6237 88.7949 31.8421 88.9954 30.9717 89H27.8887ZM29.9395 80.708V87.3525H30.9307C31.7327 87.3525 32.3457 87.0905 32.7695 86.5664C33.1934 86.0423 33.4098 85.2926 33.4189 84.3174V83.791C33.4189 82.7793 33.2093 82.0137 32.79 81.4941C32.3708 80.9701 31.7578 80.708 30.9512 80.708H29.9395ZM40.6787 85.3564H39.0449V89H36.9941V79.0469H40.6924C41.8682 79.0469 42.7751 79.3089 43.4131 79.833C44.0511 80.3571 44.3701 81.0977 44.3701 82.0547C44.3701 82.7337 44.222 83.3011 43.9258 83.7568C43.6341 84.208 43.1898 84.568 42.5928 84.8369L44.7461 88.9043V89H42.5449L40.6787 85.3564ZM39.0449 83.6953H40.6992C41.2142 83.6953 41.613 83.5654 41.8955 83.3057C42.1781 83.0413 42.3193 82.679 42.3193 82.2188C42.3193 81.7493 42.1849 81.3802 41.916 81.1113C41.6517 80.8424 41.2438 80.708 40.6924 80.708H39.0449V83.6953ZM51.9238 84.6865H47.9863V87.3525H52.6074V89H45.9355V79.0469H52.5938V80.708H47.9863V83.0801H51.9238V84.6865Z" fill="white"/>
<defs>
<filter id="filter0_d" x="12" y="13" width="57" height="58.3889" filterUnits="userSpaceOnUse" color-interpolation-filters="sRGB">
<feFlood flood-opacity="0" result="BackgroundImageFix"/>
<feColorMatrix in="SourceAlpha" type="matrix" values="0 0 0 0 0 0 0 0 0 0 0 0 0 0 0 0 0 0 127 0" result="hardAlpha"/>
<feOffset dy="4"/>
<feGaussianBlur stdDeviation="8"/>
<feColorMatrix type="matrix" values="0 0 0 0 0 0 0 0 0 0 0 0 0 0 0 0 0 0 0.25 0"/>
<feBlend mode="normal" in2="BackgroundImageFix" result="effect1_dropShadow"/>
<feBlend mode="normal" in="SourceGraphic" in2="effect1_dropShadow" result="shape"/>
</filter>
<linearGradient id="paint0_linear" x1="-35.8006" y1="70.7182" x2="79.1021" y2="136.377" gradientUnits="userSpaceOnUse">
<stop stop-color="#FF0E49"/>
<stop offset="1" stop-color="#7D1B7F"/>
</linearGradient>
</defs>
</svg>
