<svg width="80" height="140" viewBox="0 0 80 140" fill="none" xmlns="http://www.w3.org/2000/svg">
<path d="M0 0H80V140H0V0Z" fill="url(#paint0_linear)"/>
<path d="M0.5 0.5H79.5V139.5H0.5V0.5Z" stroke="white" stroke-opacity="0.5"/>
<path d="M50.616 45.137L43.973 33.749V27.6H45.273C45.6178 27.6 45.9485 27.463 46.1923 27.2192C46.4361 26.9754 46.573 26.6448 46.573 26.3C46.573 25.9552 46.4361 25.6246 46.1923 25.3808C45.9485 25.137 45.6178 25 45.273 25H34.873C34.5283 25 34.1976 25.137 33.9538 25.3808C33.71 25.6246 33.573 25.9552 33.573 26.3C33.573 26.6448 33.71 26.9754 33.9538 27.2192C34.1976 27.463 34.5283 27.6 34.873 27.6H36.173V33.749L29.53 45.137C29.1849 45.7294 29.0021 46.4024 29 47.088C28.9979 47.7736 29.1766 48.4477 29.518 49.0422C29.8595 49.6368 30.3516 50.1308 30.9448 50.4745C31.5381 50.8182 32.2114 50.9995 32.897 51H47.197C47.8827 50.9995 48.556 50.8182 49.1493 50.4745C49.7425 50.1308 50.2346 49.6368 50.5761 49.0422C50.9175 48.4477 51.0962 47.7736 51.0941 47.088C51.0919 46.4024 50.9091 45.7294 50.564 45.137H50.616ZM38.591 34.737C38.7057 34.5439 38.7684 34.3245 38.773 34.1V27.6H41.373V34.1C41.3754 34.3289 41.4382 34.5531 41.555 34.75L42.673 36.7H37.473L38.591 34.737ZM48.367 47.737C48.2536 47.9335 48.0907 48.0969 47.8946 48.2109C47.6985 48.3249 47.4759 48.3856 47.249 48.387H32.949C32.7222 48.3856 32.4996 48.3249 32.3035 48.2109C32.1073 48.0969 31.9445 47.9335 31.831 47.737C31.7169 47.5394 31.6569 47.3152 31.6569 47.087C31.6569 46.8588 31.7169 46.6346 31.831 46.437L35.952 39.3H44.207L48.367 46.45C48.4811 46.6476 48.5412 46.8718 48.5412 47.1C48.5412 47.3282 48.4811 47.5524 48.367 47.75V47.737ZM37.473 41.9C37.2159 41.9 36.9646 41.9762 36.7508 42.1191C36.537 42.2619 36.3704 42.465 36.272 42.7025C36.1736 42.9401 36.1479 43.2014 36.198 43.4536C36.2482 43.7058 36.372 43.9374 36.5538 44.1192C36.7356 44.301 36.9672 44.4249 37.2194 44.475C37.4716 44.5252 37.733 44.4994 37.9705 44.401C38.2081 44.3026 38.4111 44.136 38.554 43.9222C38.6968 43.7085 38.773 43.4571 38.773 43.2C38.773 42.8552 38.6361 42.5246 38.3923 42.2808C38.1485 42.037 37.8178 41.9 37.473 41.9ZM42.673 43.2C42.4159 43.2 42.1646 43.2762 41.9508 43.4191C41.737 43.5619 41.5704 43.765 41.472 44.0025C41.3736 44.2401 41.3479 44.5014 41.398 44.7536C41.4482 45.0058 41.572 45.2374 41.7538 45.4192C41.9356 45.601 42.1672 45.7249 42.4194 45.775C42.6716 45.8252 42.933 45.7994 43.1705 45.701C43.4081 45.6026 43.6111 45.436 43.754 45.2222C43.8968 45.0085 43.973 44.7571 43.973 44.5C43.973 44.1552 43.8361 43.8246 43.5923 43.5808C43.3485 43.337 43.0178 43.2 42.673 43.2Z" fill="white"/>
<path d="M14.0498 86.3887C14.0498 86.0013 13.9131 85.7051 13.6396 85.5C13.3662 85.2904 12.874 85.0716 12.1631 84.8438C11.4521 84.6113 10.8893 84.3835 10.4746 84.1602C9.3444 83.5495 8.7793 82.7269 8.7793 81.6924C8.7793 81.1546 8.92969 80.6761 9.23047 80.2568C9.53581 79.833 9.97103 79.5026 10.5361 79.2656C11.1058 79.0286 11.7438 78.9102 12.4502 78.9102C13.1611 78.9102 13.7946 79.04 14.3506 79.2998C14.9066 79.555 15.3372 79.9173 15.6426 80.3867C15.9525 80.8561 16.1074 81.3893 16.1074 81.9863H14.0566C14.0566 81.5306 13.9131 81.1774 13.626 80.9268C13.3389 80.6715 12.9355 80.5439 12.416 80.5439C11.9147 80.5439 11.5251 80.651 11.2471 80.8652C10.9691 81.0749 10.8301 81.3529 10.8301 81.6992C10.8301 82.0228 10.9919 82.2939 11.3154 82.5127C11.6436 82.7314 12.1243 82.9365 12.7578 83.1279C13.9245 83.4788 14.7744 83.9141 15.3076 84.4336C15.8408 84.9531 16.1074 85.6003 16.1074 86.375C16.1074 87.2363 15.7816 87.9131 15.1299 88.4053C14.4782 88.8929 13.6009 89.1367 12.498 89.1367C11.7324 89.1367 11.0352 88.9977 10.4062 88.7197C9.77734 88.4372 9.29655 88.0521 8.96387 87.5645C8.63574 87.0768 8.47168 86.5117 8.47168 85.8691H10.5293C10.5293 86.9674 11.1855 87.5166 12.498 87.5166C12.9857 87.5166 13.3662 87.4186 13.6396 87.2227C13.9131 87.0221 14.0498 86.7441 14.0498 86.3887ZM19.457 89H17.4746V81.6035H19.457V89ZM17.3584 79.6895C17.3584 79.3932 17.4564 79.1494 17.6523 78.958C17.8529 78.7666 18.124 78.6709 18.4658 78.6709C18.8031 78.6709 19.0719 78.7666 19.2725 78.958C19.473 79.1494 19.5732 79.3932 19.5732 79.6895C19.5732 79.9902 19.4707 80.2363 19.2656 80.4277C19.0651 80.6191 18.7985 80.7148 18.4658 80.7148C18.1331 80.7148 17.8643 80.6191 17.6592 80.4277C17.4587 80.2363 17.3584 79.9902 17.3584 79.6895ZM22.9434 81.6035L23.0049 82.4307C23.529 81.7881 24.2376 81.4668 25.1309 81.4668C26.0833 81.4668 26.7373 81.8428 27.0928 82.5947C27.6123 81.8428 28.3529 81.4668 29.3145 81.4668C30.1165 81.4668 30.7135 81.7015 31.1055 82.1709C31.4974 82.6357 31.6934 83.3376 31.6934 84.2764V89H29.7109V84.2832C29.7109 83.8639 29.6289 83.5586 29.4648 83.3672C29.3008 83.1712 29.0114 83.0732 28.5967 83.0732C28.0042 83.0732 27.5941 83.3558 27.3662 83.9209L27.373 89H25.3975V84.29C25.3975 83.8617 25.3132 83.5518 25.1445 83.3604C24.9759 83.1689 24.6888 83.0732 24.2832 83.0732C23.7227 83.0732 23.3171 83.3057 23.0664 83.7705V89H21.0908V81.6035H22.9434ZM37.6475 88.248C37.1598 88.8405 36.4854 89.1367 35.624 89.1367C34.8311 89.1367 34.2249 88.9089 33.8057 88.4531C33.391 87.9974 33.179 87.3298 33.1699 86.4502V81.6035H35.1455V86.3818C35.1455 87.152 35.4964 87.5371 36.1982 87.5371C36.8682 87.5371 37.3285 87.3047 37.5791 86.8398V81.6035H39.5615V89H37.7021L37.6475 88.248ZM43.1367 89H41.1543V78.5H43.1367V89ZM49.0566 89C48.9655 88.8223 48.8994 88.6012 48.8584 88.3369C48.3799 88.8701 47.7578 89.1367 46.9922 89.1367C46.2676 89.1367 45.666 88.9271 45.1875 88.5078C44.7135 88.0885 44.4766 87.5599 44.4766 86.9219C44.4766 86.138 44.766 85.5365 45.3447 85.1172C45.9281 84.6979 46.7689 84.486 47.8672 84.4814H48.7764V84.0576C48.7764 83.7158 48.6875 83.4424 48.5098 83.2373C48.3366 83.0322 48.0609 82.9297 47.6826 82.9297C47.3499 82.9297 47.0879 83.0094 46.8965 83.1689C46.7096 83.3285 46.6162 83.5472 46.6162 83.8252H44.6406C44.6406 83.3968 44.7728 83.0003 45.0371 82.6357C45.3014 82.2712 45.6751 81.9863 46.1582 81.7812C46.6413 81.5716 47.1836 81.4668 47.7852 81.4668C48.6966 81.4668 49.4189 81.6969 49.9521 82.1572C50.4899 82.613 50.7588 83.2555 50.7588 84.085V87.291C50.7633 87.9928 50.8613 88.5238 51.0527 88.8838V89H49.0566ZM47.4229 87.626C47.7145 87.626 47.9834 87.5622 48.2295 87.4346C48.4756 87.3024 48.6579 87.127 48.7764 86.9082V85.6367H48.0381C47.0492 85.6367 46.5228 85.9785 46.459 86.6621L46.4521 86.7783C46.4521 87.0244 46.5387 87.2272 46.7119 87.3867C46.8851 87.5462 47.1221 87.626 47.4229 87.626ZM51.9688 85.2471C51.9688 84.0941 52.2262 83.1758 52.7412 82.4922C53.2607 81.8086 53.9694 81.4668 54.8672 81.4668C55.5872 81.4668 56.182 81.7357 56.6514 82.2734V78.5H58.6338V89H56.8496L56.7539 88.2139C56.2617 88.8291 55.6283 89.1367 54.8535 89.1367C53.9831 89.1367 53.2835 88.7949 52.7549 88.1113C52.2308 87.4232 51.9688 86.4684 51.9688 85.2471ZM53.9443 85.3906C53.9443 86.0833 54.0651 86.6143 54.3066 86.9834C54.5482 87.3525 54.8991 87.5371 55.3594 87.5371C55.9701 87.5371 56.4007 87.2796 56.6514 86.7646V83.8457C56.4053 83.3307 55.9792 83.0732 55.373 83.0732C54.4206 83.0732 53.9443 83.8457 53.9443 85.3906ZM59.8574 85.2334C59.8574 84.4997 59.9987 83.8457 60.2812 83.2715C60.5638 82.6973 60.9694 82.2529 61.498 81.9385C62.0312 81.624 62.6488 81.4668 63.3506 81.4668C64.3486 81.4668 65.1621 81.7721 65.791 82.3828C66.4245 82.9935 66.7777 83.8229 66.8506 84.8711L66.8643 85.377C66.8643 86.5117 66.5475 87.4232 65.9141 88.1113C65.2806 88.7949 64.4307 89.1367 63.3643 89.1367C62.2979 89.1367 61.4456 88.7949 60.8076 88.1113C60.1742 87.4277 59.8574 86.498 59.8574 85.3223V85.2334ZM61.833 85.377C61.833 86.0788 61.9652 86.6165 62.2295 86.9902C62.4938 87.3594 62.8721 87.5439 63.3643 87.5439C63.8428 87.5439 64.2165 87.3617 64.4854 86.9971C64.7542 86.6279 64.8887 86.04 64.8887 85.2334C64.8887 84.5452 64.7542 84.012 64.4854 83.6338C64.2165 83.2555 63.8382 83.0664 63.3506 83.0664C62.8675 83.0664 62.4938 83.2555 62.2295 83.6338C61.9652 84.0075 61.833 84.5885 61.833 85.377ZM72.2373 83.4561C71.9684 83.4196 71.7314 83.4014 71.5264 83.4014C70.779 83.4014 70.2891 83.6543 70.0566 84.1602V89H68.0811V81.6035H69.9473L70.002 82.4854C70.3984 81.8063 70.9476 81.4668 71.6494 81.4668C71.8682 81.4668 72.0732 81.4964 72.2646 81.5557L72.2373 83.4561Z" fill="white"/>
<defs>
<linearGradient id="paint0_linear" x1="-35.8006" y1="70.7182" x2="79.1021" y2="136.377" gradientUnits="userSpaceOnUse">
<stop stop-color="#FF0E49"/>
<stop offset="1" stop-color="#7D1B7F"/>
</linearGradient>
</defs>
</svg>
